<svg width="239" height="239" viewBox="0 0 239 239" fill="none" xmlns="http://www.w3.org/2000/svg">
<g clip-path="url(#clip0_sg_logo)">
<path d="M180.31 122.625V180.812H122.121C122.121 212.951 148.172 239.003 180.31 239.003C182.319 239.003 184.303 238.901 186.259 238.703C190.502 238.271 194.605 237.37 198.527 236.076C199.674 235.698 200.804 235.287 201.917 234.842C203.592 234.17 205.228 233.423 206.822 232.605C207.585 232.214 208.338 231.808 209.082 231.384C210.071 230.819 211.044 230.228 211.997 229.608C216.158 226.9 219.958 223.684 223.292 220.034C225.43 217.69 227.367 215.167 229.104 212.501C229.724 211.548 230.315 210.577 230.88 209.584C231.796 207.978 232.636 206.327 233.399 204.629C235.893 199.078 237.557 193.074 238.198 186.762C238.397 184.806 238.498 182.822 238.498 180.812C238.498 148.676 212.447 122.625 180.31 122.625Z" fill="#1A1A33"/>
<path d="M58.189 0C26.0513 0 0 26.0513 0 58.1877C0 90.3241 26.0513 116.378 58.189 116.378V58.1877H116.378C116.378 26.0513 90.3254 0 58.189 0Z" fill="#1A1A33"/>
<path d="M116.375 180.809H58.1956V122.63C90.3397 122.643 116.375 148.679 116.375 180.809Z" fill="#FB2185"/>
<path d="M116.375 180.809C116.375 212.953 90.3397 238.989 58.1956 239.001H58.1822C26.0514 239.001 0.00299072 212.953 0.00299072 180.809C0.00299072 148.666 26.0514 122.63 58.1821 122.63H58.1955V180.809H116.375Z" fill="#1A1A33"/>
<path d="M180.309 58.1847V116.377C148.178 116.377 122.116 90.3282 122.116 58.1847H180.309Z" fill="#FB2185"/>
<path d="M238.502 58.1847C238.502 90.3282 212.453 116.377 180.309 116.377V58.1847H122.117C122.116 26.054 148.178 0.00561523 180.309 0.00561523C212.44 0.00561523 238.502 26.054 238.502 58.1847Z" fill="#1A1A33"/>
</g>
<defs>
<clipPath id="clip0_sg_logo">
<rect width="238.501" height="239.002" fill="white"/>
</clipPath>
</defs>
</svg>
